<?xml version="1.0" standalone="no"?>
<!DOCTYPE svg PUBLIC "-//W3C//DTD SVG 20010904//EN"
 "http://www.w3.org/TR/2001/REC-SVG-20010904/DTD/svg10.dtd">
<svg version="1.0" xmlns="http://www.w3.org/2000/svg"
 width="791.000000pt" height="791.000000pt" viewBox="0 0 791.000000 791.000000"
 preserveAspectRatio="xMidYMid meet">
<metadata>
Created by potrace 1.14, written by Peter Selinger 2001-2017
</metadata>
<g transform="translate(0.000000,791.000000) scale(0.100000,-0.100000)"
fill="#000000" stroke="none">
<path d="M3932 7897 c-18 -22 -842 -2480 -842 -2511 0 -10 34 -32 94 -60 129
-60 199 -110 294 -211 96 -101 150 -201 181 -335 21 -92 36 -110 87 -110 23 0
38 8 52 25 18 22 20 47 26 262 3 131 8 301 11 378 3 77 7 217 10 310 3 94 13
267 21 385 20 290 79 828 90 817 6 -6 52 -454 68 -667 22 -282 44 -783 51
-1160 7 -345 8 -350 67 -350 58 0 70 16 103 132 10 39 24 63 40 74 14 9 29 31
34 48 5 18 32 65 60 103 28 39 51 77 52 84 1 31 159 149 275 206 101 49 115
59 111 77 -3 12 -58 174 -121 361 -64 187 -230 682 -370 1100 -345 1033 -363
1080 -394 1042z m-451 -2197 c4 0 15 -13 24 -30 14 -27 14 -32 -1 -55 -34 -52
-104 -28 -104 36 0 30 35 63 58 54 8 -3 18 -5 23 -5z"/>
<path d="M3315 4608 c-29 -26 -115 -245 -122 -315 -4 -37 -1 -46 25 -73 64
-64 136 -30 170 81 11 35 34 97 51 138 38 90 39 120 5 160 -33 39 -89 43 -129
9z"/>
<path d="M4456 4604 c-33 -34 -34 -71 0 -160 14 -38 36 -100 50 -139 28 -77
61 -115 101 -115 63 0 121 70 103 126 -37 119 -103 272 -125 292 -37 32 -94
30 -129 -4z"/>
<path d="M3606 4483 c-29 -58 -86 -223 -86 -251 0 -47 13 -52 147 -52 l123 0
0 -185 0 -185 160 0 160 0 0 185 0 184 127 3 128 3 9 27 c8 22 2 48 -33 140
-23 62 -49 123 -57 136 l-14 22 -325 0 -324 0 -15 -27z"/>
<path d="M3797 3643 c-4 -3 -7 -559 -7 -1235 l0 -1228 -95 0 c-110 0 -146 -13
-171 -62 -29 -57 -2 -141 54 -167 13 -6 65 -11 116 -11 l93 0 2 -63 2 -63 -35
-12 c-46 -17 -138 -101 -169 -155 -46 -79 -60 -140 -55 -245 3 -87 7 -103 38
-162 40 -74 122 -160 180 -190 104 -53 251 -63 350 -24 58 23 157 88 193 127
63 69 100 233 77 343 -25 124 -96 225 -201 290 l-59 37 0 58 0 59 91 0 c99 0
128 10 164 58 39 53 16 138 -46 169 -14 7 -63 13 -116 13 l-93 0 1 1224 c1
673 -1 1229 -5 1235 -8 12 -297 16 -309 4z m206 -3097 c78 -33 110 -126 67
-194 -20 -32 -87 -71 -123 -72 -62 -1 -137 80 -137 148 0 59 76 132 138 132
12 0 37 -6 55 -14z"/>
</g>
</svg>
